<?xml version="1.0" encoding="UTF-8" standalone="no"?>
<svg
   xmlns:dc="http://purl.org/dc/elements/1.1/"
   xmlns:cc="http://creativecommons.org/ns#"
   xmlns:rdf="http://www.w3.org/1999/02/22-rdf-syntax-ns#"
   xmlns:svg="http://www.w3.org/2000/svg"
   xmlns="http://www.w3.org/2000/svg"
   xmlns:sodipodi="http://sodipodi.sourceforge.net/DTD/sodipodi-0.dtd"
   xmlns:inkscape="http://www.inkscape.org/namespaces/inkscape"
   width="39.006351mm"
   height="11.990673mm"
   viewBox="0 0 39.006351 11.990673"
   version="1.1"
   id="svg8"
   sodipodi:docname="grantha.svg"
   inkscape:version="1.0.1 (3bc2e813f5, 2020-09-07)">
  <g
     id="g847"
     transform="translate(0.91389681)">
    <path
       d="M 3.3994004,7.3706343 3.035077,7.0063108 V 2.6036413 L 3.1838851,2.4548331 3.5482086,2.8191566 v 4.4026695 z m -1.2828291,0 L 1.7522478,7.0063108 V 2.6036413 L 1.901056,2.4548331 2.2653795,2.8191566 v 4.4026695 z"
       style="font-size:7.05556px;line-height:1.25;font-family:Siddhanta;-inkscape-font-specification:Siddhanta;letter-spacing:0px;stroke-width:0.264583"
       id="path841" />
    <path
       d="m 9.5678769,8.3224935 q -0.2963335,0 -0.4586114,0.035278 -0.1622779,0.042333 -0.2610557,0.1128889 -0.1340557,0.091722 -0.1975557,0.2328335 -0.0635,0.1411112 -0.0635,0.3739447 0,0.2116668 0.021167,0.3810002 L 8.0297648,9.4866609 Q 8.0085981,9.3596608 7.994487,9.2044385 7.9803759,9.0562717 7.9803759,8.9363272 q 0,-0.3104447 0.112889,-0.529167 Q 8.2061538,8.1954934 8.3825428,8.0614377 8.5659874,7.9273821 8.7917653,7.8709376 9.0245988,7.8144931 9.3773768,7.8144931 h 2.4694462 q 0.430389,0 0.705556,-0.1552223 0.282222,-0.1552223 0.451556,-0.4233336 0.169333,-0.2610557 0.246944,-0.5926671 0.08467,-0.3386668 0.105834,-0.6985004 0.02822,-0.3668891 0.02822,-0.7196671 0,-0.4868337 -0.0635,-0.8396117 -0.05645,-0.352778 -0.246945,-0.5432781 -0.1905,-0.1975557 -0.5715,-0.1975557 -0.373945,0 -0.578556,0.1834446 Q 11.719821,4.0115462 11.64221,4.3078798 11.5646,4.5971577 11.5646,4.9428802 v 0.239889 q 0,0.8537228 -0.359833,1.3687787 -0.359834,0.5080003 -1.157112,0.5080003 -0.8113894,0 -1.1641674,-0.5080003 Q 8.5307096,6.036492 8.5307096,5.0769358 V 3.2072124 h 0.6067781 v 1.7568344 q 0,0.8537228 0.1975557,1.2206119 0.2046113,0.3668892 0.7126116,0.3668892 0.508,0 0.705556,-0.3598336 0.204611,-0.3668891 0.204611,-0.9454451 V 4.9852135 q 0,-0.529167 0.148167,-0.945445 0.155222,-0.4233336 0.486834,-0.6632227 0.338667,-0.239889 0.881945,-0.239889 0.818445,0 1.164167,0.5644448 0.352778,0.5573892 0.352778,1.5663343 0,0.3739447 -0.04233,0.7902228 -0.03528,0.416278 -0.155223,0.8184449 -0.119944,0.402167 -0.359833,0.7267227 -0.239889,0.3316113 -0.642056,0.5221115 -0.395111,0.1975557 -0.987779,0.1975557 z"
       style="font-size:7.05556px;line-height:1.25;font-family:Siddhanta;-inkscape-font-specification:Siddhanta;letter-spacing:0px;stroke-width:0.264583"
       id="path843" />
    <path
       d="m 17.244326,4.9922691 h -0.853723 v 2.9068907 q 0,0.7620005 -0.303389,1.3052787 -0.296334,0.5503337 -0.818445,0.8960565 -0.515056,0.345722 -1.178279,0.508 -0.663222,0.162278 -1.397,0.162278 -0.917223,0 -1.538113,-0.211667 Q 10.527433,10.347439 10.132321,9.9876056 9.7301543,9.6277721 9.4832097,9.1903273 l 0.5503333,-0.127 q 0.395112,0.6208893 1.037168,0.9101672 0.635,0.2892775 1.545167,0.2892775 1.008945,0 1.721557,-0.2751664 Q 15.042991,9.7124388 15.40988,9.211494 15.783825,8.7176048 15.783825,8.040271 V 4.9922691 H 14.492657 V 4.4842688 h 2.751669 z"
       style="font-size:7.05556px;line-height:1.25;font-family:Siddhanta;-inkscape-font-specification:Siddhanta;letter-spacing:0px;stroke-width:0.264583"
       id="path845" />
    <path
       d="m 18.302645,7.2218261 v -3.993447 h 3.675947 v 0.5080003 h -1.234723 v 1.2558897 q 0.176389,-0.1058334 0.388056,-0.176389 0.211667,-0.077611 0.465667,-0.077611 0.536222,0 0.853723,0.3598336 0.3175,0.352778 0.3175,1.0089451 V 6.311659 q 0,0.3175002 0.1905,0.5080004 0.197556,0.1834445 0.486834,0.1834445 0.338666,0 0.564444,-0.2610557 0.225778,-0.2681113 0.225778,-0.7408338 V 4.9217135 h 0.606778 v 0.8678339 q 0,0.1270001 -0.0071,0.239889 v 0.2116668 q 0,0.5715004 0.388056,0.8607784 0.395111,0.2892779 1.008945,0.2892779 0.649111,0 1.044223,-0.3033891 0.402167,-0.3033891 0.606778,-0.8184449 0.204611,-0.5221115 0.261056,-1.1782786 -0.169334,0.1340557 -0.388056,0.2187224 -0.218723,0.084667 -0.486834,0.084667 -0.275167,0 -0.536222,-0.112889 Q 26.472984,5.1616025 26.30365,4.928769 26.141372,4.68888 26.141372,4.3290464 q 0,-0.3598335 0.169334,-0.6279448 0.169333,-0.2681113 0.465667,-0.4162781 0.296333,-0.1481667 0.670278,-0.1481667 0.373945,0 0.670278,0.1693334 0.303389,0.1622779 0.479778,0.4938892 0.176389,0.3316113 0.176389,0.8396117 0,0.4515558 -0.07055,0.9101672 -0.07056,0.4586114 -0.239889,0.881945 -0.169334,0.4233337 -0.465667,0.754945 -0.289278,0.3245557 -0.719667,0.5150559 -0.430389,0.1975556 -1.037168,0.1975556 -0.599722,0 -1.051278,-0.2257779 -0.4445,-0.2187223 -0.656167,-0.6350004 -0.162278,0.2257779 -0.430389,0.3457225 -0.268112,0.127 -0.656167,0.127 -0.388056,0 -0.635001,-0.1128889 Q 22.564204,7.2923817 22.423092,7.1230482 22.281981,6.9537148 22.225537,6.7561591 22.169092,6.5586034 22.169092,6.38927 V 6.1282143 q 0,-0.402167 -0.183444,-0.6350005 -0.176389,-0.239889 -0.515056,-0.239889 -0.204612,0 -0.395112,0.084667 -0.183444,0.077611 -0.331611,0.1905001 V 7.2218261 H 20.137091 V 3.7363794 h -1.227668 v 3.4854467 z m 8.445506,-2.935113 q 0,0.2610557 0.176389,0.4303891 0.183444,0.1693335 0.493889,0.1693335 0.246944,0 0.437445,-0.112889 0.1905,-0.1128889 0.310444,-0.2963335 -0.0071,-0.3175002 -0.119944,-0.5009448 -0.105834,-0.1834445 -0.268112,-0.2540001 -0.162277,-0.077611 -0.324555,-0.077611 -0.169334,0 -0.331612,0.077611 -0.162278,0.070556 -0.268111,0.2187223 -0.105833,0.1411112 -0.105833,0.3457225 z"
       style="font-size:7.05556px;line-height:1.25;font-family:Siddhanta;-inkscape-font-specification:Siddhanta;letter-spacing:0px;stroke-width:0.264583"
       id="path847" />
    <path
       d="M 35.266112,7.3706343 34.901788,7.0063108 V 2.6036413 l 0.148808,-0.1488082 0.364324,0.3643235 v 4.4026695 z m -1.282829,0 -0.364324,-0.3643235 V 2.6036413 l 0.148808,-0.1488082 0.364324,0.3643235 v 4.4026695 z"
       style="font-size:7.05556px;line-height:1.25;font-family:Siddhanta;-inkscape-font-specification:Siddhanta;letter-spacing:0px;stroke-width:0.264583"
       id="path851" />
  </g>
  <sodipodi:namedview
     pagecolor="#ffffff"
     bordercolor="#666666"
     borderopacity="1"
     objecttolerance="10"
     gridtolerance="10"
     guidetolerance="10"
     inkscape:pageopacity="0"
     inkscape:pageshadow="2"
     inkscape:window-width="2558"
     inkscape:window-height="1078"
     id="namedview839"
     showgrid="false"
     fit-margin-top="1"
     fit-margin-left="1"
     fit-margin-bottom="1"
     fit-margin-right="1"
     inkscape:zoom="7.3273244"
     inkscape:cx="83.089397"
     inkscape:cy="41.654065"
     inkscape:window-x="1024"
     inkscape:window-y="0"
     inkscape:window-maximized="0"
     inkscape:current-layer="svg8"
     inkscape:document-rotation="0" />
  <defs
     id="defs2" />
  <metadata
     id="metadata5">
    <rdf:RDF>
      <cc:Work
         rdf:about="">
        <dc:format>image/svg+xml</dc:format>
        <dc:type
           rdf:resource="http://purl.org/dc/dcmitype/StillImage" />
        <dc:title />
      </cc:Work>
    </rdf:RDF>
  </metadata>
</svg>
